<?xml version="1.0" encoding="utf-8"?>
<!-- Generator: Adobe Illustrator 19.0.0, SVG Export Plug-In . SVG Version: 6.00 Build 0)  -->
<svg version="1.1" id="Layer_1" xmlns="http://www.w3.org/2000/svg" xmlns:xlink="http://www.w3.org/1999/xlink" x="0px" y="0px"
	 viewBox="0 0 1920 1080" style="enable-background:new 0 0 1920 1080;" xml:space="preserve">
<style type="text/css">
	.st0{fill:#5C3700;}
	.st1{fill:none;}
	.st2{fill:#FF9900;}
	.st3{fill:#FFFFFF;}
</style>
<path id="XMLID_22_" class="st0" d="M1468.4,648.2L1353.6,763H319V491l94-94V677h63V540h1.1c3.4,8,5.9,13,7.4,15.4L566.2,677h79.7
	L539.8,530.5l12-16.4l0.5-0.7L669,396.9v161.7c0,82.2,38.2,123.2,114.2,123.2c78.4,0,117.8-42.1,117.8-126.2v-97.8l61-60.9V677h99.1
	c45.2,0,81.3-13,108.5-39.1c0.4-0.4,0.9-0.9,1.3-1.3c1.3-1.3,2.5-2.6,3.8-3.9c0.8-0.9,1.6-1.8,2.4-2.7c2-2.2,3.9-4.5,5.6-6.9
	c0.5-0.7,1-1.3,1.5-2c7.2-9.8,12.9-20.6,17.2-32.3c0.4-1.1,0.8-2.2,1.2-3.4c0.3-1,0.6-2,0.9-3c0.3-0.8,0.5-1.7,0.7-2.5
	c0.2-0.6,0.3-1.1,0.5-1.7c0.1-0.3,0.2-0.5,0.2-0.8c0-0.1,0-0.1,0-0.2c0.1-0.4,0.2-0.8,0.3-1.3c0.3-1.1,0.6-2.3,0.8-3.4
	c1.8-7.5,2.9-15.3,3.6-23.5c0.1-0.7,0.1-1.5,0.2-2.2c0.1-0.7,0.1-1.5,0.1-2.2c0-0.7,0.1-1.5,0.1-2.2c0-1,0.1-1.9,0.1-2.9
	c0-1,0.1-2,0.1-3c0-1.1,0-2.2,0-3.3c0-3.1-0.1-6.1-0.2-9.1c-0.1-6.1-0.5-11.9-1.4-17.5c-0.2-1.3-0.3-2.6-0.5-3.9c0,0,0,0,0,0
	c0,0,0-0.1,0-0.2l67.3-67.2c-0.8,0.8-1.5,1.7-2.2,2.6c-2.9,3.4-5.7,7-8.2,10.7c-0.7,1-1.3,1.9-2,2.9c-0.6,0.9-1.2,1.9-1.8,2.8
	c-0.1,0.1-0.1,0.2-0.2,0.3c-0.6,1-1.2,1.9-1.7,2.9c-0.6,1-1.1,2-1.7,2.9c0,0.1-0.1,0.2-0.1,0.2c-0.3,0.5-0.6,1.1-0.9,1.6
	c-0.3,0.5-0.6,1.1-0.8,1.6c-11.1,21.8-16.6,47.2-16.6,76.3c0,41.9,12.7,76,37.9,102c1,1,2,2,3,3c3,2.9,6.2,5.7,9.4,8.3c0,0,0,0,0,0
	c0.7,0.5,1.3,1,1.9,1.5c1,0.8,2,1.5,3,2.2c1,0.7,2,1.4,3,2.1c1.8,1.2,3.7,2.4,5.5,3.5c7.5,4.5,15.4,8.2,23.8,11
	c14.7,5,30.8,7.5,48.4,7.5C1412.7,681.9,1443.8,670.6,1468.4,648.2z"/>
<path id="XMLID_23_" class="st1" d="M1208.7,506.9c-0.2-1.3-0.4-2.5-0.7-3.8c0,0,0-0.1,0-0.1v0l0.2-0.2c0,0,0,0.1,0,0.2c0,0,0,0,0,0
	C1208.4,504.3,1208.6,505.6,1208.7,506.9z"/>
<path id="XMLID_19_" class="st1" d="M1210.3,533.5c0,1.1,0,2.2,0,3.3c0,1,0,2-0.1,3c0,1-0.1,1.9-0.1,2.9c0,0.7-0.1,1.5-0.1,2.2
	c0,0.8-0.1,1.5-0.1,2.2c-0.1,0.7-0.1,1.5-0.2,2.2c-0.4,4.5-0.9,9-1.6,13.3c0.1-0.7,0.2-1.5,0.3-2.2c0.1-0.9,0.3-1.8,0.4-2.7
	c0.1-0.9,0.2-1.7,0.3-2.6c0-0.1,0-0.1,0-0.1c0.1-0.9,0.2-1.8,0.3-2.7c0.1-0.9,0.2-1.7,0.2-2.6c0-0.2,0-0.5,0-0.7
	c0.1-0.7,0.1-1.5,0.2-2.2c0.1-0.9,0.1-1.9,0.2-2.8C1210.1,540.6,1210.2,537,1210.3,533.5c-0.1-3.1-0.1-6.1-0.2-9.1
	C1210.2,527.4,1210.3,530.4,1210.3,533.5z"/>
<path id="XMLID_35_" class="st1" d="M1206.9,569.1c0-0.2,0.1-0.4,0.1-0.6C1206.9,568.7,1206.9,568.9,1206.9,569.1z"/>
<path id="XMLID_37_" class="st1" d="M1206,572.9c0.3-1.2,0.6-2.5,0.8-3.7C1206.6,570.4,1206.3,571.6,1206,572.9z"/>
<path id="XMLID_39_" class="st1" d="M1205.5,575c0.2-0.7,0.4-1.4,0.5-2.2C1205.9,573.6,1205.7,574.3,1205.5,575z"/>
<polygon id="XMLID_18_" class="st1" points="552.3,513.5 551.8,514.1 539.8,530.5 551.3,514.6 551.3,514.6 551.7,514.1 "/>
<path id="XMLID_51_" class="st2" d="M319,323v168l94-94V677h63V540h1.1c3.4,8,5.9,13,7.4,15.4L566.2,677h79.7L539.7,530.5l11.6-15.9
	l0,0l0.4-0.5l0.6-0.6L669,396.9v161.7c0,82.2,38.2,123.2,114.2,123.2c78.4,0,117.8-42.1,117.8-126.2v-97.8l61-60.9V677h99.1
	c45.2,0,81.3-13,108.5-39.1c0.4-0.4,0.9-0.9,1.3-1.3c1.3-1.3,2.5-2.6,3.8-3.9c0.8-0.9,1.6-1.8,2.4-2.7c2-2.2,3.9-4.5,5.6-6.9
	c0.5-0.7,1-1.3,1.5-2c7.2-9.8,12.9-20.6,17.1-32.3c0.4-1.1,0.8-2.2,1.1-3.4c2.6-8,4.6-16.4,5.9-25.2c0.1-0.9,0.3-1.8,0.4-2.7
	c0.1-0.9,0.2-1.7,0.3-2.6c0-0.1,0-0.1,0-0.1c0.1-0.9,0.2-1.8,0.3-2.7c0.1-0.9,0.2-1.7,0.2-2.6c0-0.2,0-0.5,0-0.7
	c0.1-0.7,0.1-1.5,0.2-2.2c0.1-0.9,0.1-1.9,0.2-2.8c0.2-3.4,0.3-7,0.3-10.5c0-3.1,0-6.1-0.1-9.1c-0.1-6.1-0.5-11.9-1.4-17.5
	c-0.2-1.3-0.4-2.5-0.7-3.8c0,0,0-0.1,0-0.1v0l0.2-0.2l67.3-67.2c-0.8,0.8-1.5,1.7-2.2,2.6c-2.9,3.4-5.7,7-8.2,10.7
	c-0.7,1-1.3,1.9-2,2.9c-0.6,0.9-1.2,1.9-1.8,2.8c-0.1,0.1-0.1,0.2-0.2,0.3c-0.6,1-1.2,1.9-1.7,2.9c-0.6,1-1.1,2-1.7,2.9
	c0,0.1-0.1,0.2-0.1,0.2c-0.3,0.5-0.6,1.1-0.9,1.6c-0.3,0.5-0.6,1.1-0.8,1.6c-1.6,3.1-3,6.2-4.3,9.4c-0.1,0.3-0.2,0.5-0.3,0.8
	c-0.1,0.3-0.3,0.6-0.4,0.9c-0.3,0.7-0.6,1.4-0.8,2.1c-0.3,0.7-0.5,1.4-0.8,2.1c-0.2,0.5-0.3,0.9-0.5,1.4c-0.3,0.9-0.6,1.8-0.9,2.7
	c0,0.1-0.1,0.1-0.1,0.2c-0.4,1.3-0.8,2.6-1.2,3.9c-0.1,0.3-0.2,0.6-0.3,0.9c-0.3,1.1-0.7,2.3-1,3.4c-0.4,1.5-0.8,3-1.2,4.6
	c-0.2,0.8-0.4,1.7-0.6,2.5c-0.2,1-0.4,2-0.6,3c0,0,0,0,0,0c-0.1,0.4-0.2,0.9-0.3,1.3c-0.1,0.4-0.2,0.9-0.3,1.3c0,0,0,0.1,0,0.2
	c-0.2,0.9-0.3,1.8-0.5,2.7c0,0.1,0,0.2,0,0.3c-0.2,0.9-0.3,1.8-0.4,2.7c-0.1,1-0.3,1.9-0.4,2.9c-0.2,1.2-0.3,2.5-0.5,3.7
	c-0.1,0.9-0.2,1.9-0.3,2.8c-0.2,1.9-0.3,3.8-0.5,5.7c-0.1,1-0.1,1.9-0.2,2.9c-0.2,3.9-0.3,7.9-0.3,11.9c0,41.9,12.6,76,37.9,102
	c1,1,2,2,3,3c3,2.9,6.2,5.7,9.4,8.3c0,0,0,0,0,0c0.7,0.5,1.3,1,1.9,1.5c1,0.8,2,1.5,3,2.2c1,0.7,2,1.4,3,2.1
	c1.8,1.2,3.7,2.4,5.5,3.5c7.5,4.5,15.4,8.2,23.8,11c14.7,5,30.8,7.5,48.4,7.5c37.6,0,68.7-11.2,93.3-33.7L1353.6,763H1583V323H319z
	 M838,561.8c0,43.8-17.3,65.6-52,65.6c-35.4,0-53-22.7-53-68v-57.7L838,397V561.8z M1120.6,601.3c-15.6,16.4-37,24.7-64.4,24.7H1025
	V448h30.8c27.9,0,49.5,7.8,64.9,23.1c15.4,15.3,23.1,36.4,23.1,63.1C1143.9,562.5,1136.1,584.9,1120.6,601.3z M1428.1,603.9
	c-12.8,15.7-30,23.5-51.8,23.5c-21.1,0-38.2-8.1-51.2-24.2c-13-16.1-19.5-38.1-19.5-65.8c0-27.3,6.5-49.3,19.5-65.9
	c13-16.6,30.6-24.9,52.7-24.9c21.5,0,38.4,8.1,50.8,24.2c12.4,16.1,18.6,38.7,18.6,67.8C1447.2,566.4,1440.8,588.2,1428.1,603.9z"/>
<path id="XMLID_4_" class="st3" d="M539.8,530.5l12-16.4l0.5-0.7L637.5,397h-75.2l-77.3,116.6c-3.6,6.8-6.3,12.4-7.8,15.4H476V397
	h-63v280h63V540h1.1c3.4,8,5.9,13,7.4,15.4L566.2,677h79.7L539.8,530.5z"/>
<path id="XMLID_6_" class="st3" d="M838,397v164.8c0,43.8-17.3,65.6-52,65.6c-35.4,0-53-22.7-53-68V397h-64v161.6
	c0,82.2,38.2,123.2,114.2,123.2c78.4,0,117.8-42.1,117.8-126.2V397H838z"/>
<path id="XMLID_8_" class="st3" d="M1210.1,524.4c-0.2-6.1-0.7-11.9-1.4-17.5c-0.2-1.3-0.3-2.6-0.5-3.9c0,0,0,0,0,0c0,0,0-0.1,0-0.2
	c-10.4-70.6-59.5-105.8-147.1-105.8H962v280h99.1c45.2,0,81.3-13,108.5-39.1c0.4-0.4,0.9-0.9,1.3-1.3c1.3-1.3,2.5-2.6,3.8-3.9
	c0.8-0.9,1.6-1.8,2.4-2.7c2-2.2,3.9-4.5,5.6-6.9c0.5-0.7,1-1.3,1.5-2c7.2-9.8,12.9-20.6,17.2-32.3c0.4-1.1,0.8-2.2,1.2-3.4
	c0.3-1,0.6-2,0.9-3c0.3-0.8,0.5-1.7,0.7-2.5c0.2-0.6,0.3-1.1,0.5-1.7c0.1-0.3,0.2-0.5,0.2-0.8c0-0.1,0-0.1,0-0.2
	c0.1-0.4,0.2-0.8,0.3-1.3c0.1-0.4,0.2-0.8,0.3-1.3c0.2-0.7,0.4-1.4,0.5-2.2c0.3-1.2,0.5-2.5,0.8-3.8c0-0.2,0.1-0.4,0.1-0.6
	c0.2-1,0.4-2,0.6-3c0.2-1,0.3-2,0.5-3c0.7-4.3,1.3-8.7,1.6-13.3c0.1-0.7,0.1-1.5,0.2-2.2c0-0.8,0.1-1.5,0.1-2.2
	c0-0.7,0.1-1.5,0.1-2.2c0-1,0.1-1.9,0.1-2.9c0-1,0.1-2,0.1-3c0-1.1,0-2.2,0-3.3C1210.3,530.4,1210.2,527.4,1210.1,524.4z
	 M1120.6,601.3c-15.6,16.4-37,24.7-64.4,24.7H1025V448h30.8c27.9,0,49.5,7.8,64.9,23.1c15.4,15.3,23.1,36.4,23.1,63.1
	C1143.9,562.5,1136.1,584.9,1120.6,601.3z"/>
<path id="XMLID_30_" class="st0" d="M1143.9,534.2c0,28.3-7.8,50.7-23.3,67.1c-15.6,16.4-37,24.7-64.4,24.7H1025V448h30.8
	c27.9,0,49.5,7.8,64.9,23.1C1136.2,486.4,1143.9,507.5,1143.9,534.2z"/>
<path id="XMLID_11_" class="st3" d="M1476.6,431.5c-24.7-26.2-57-39.3-97-39.3c-42.3,0-76.3,13.7-102,41c-0.7,0.8-1.5,1.6-2.2,2.4
	c-10.1,11.3-18.1,24-24,38.1c-0.1,0.3-0.2,0.5-0.3,0.8c-0.1,0.3-0.3,0.6-0.4,0.9c-0.3,0.7-0.6,1.4-0.8,2.1c-0.3,0.7-0.5,1.4-0.8,2.1
	c-0.2,0.5-0.3,0.9-0.5,1.4c-0.3,0.9-0.6,1.8-0.9,2.7c0,0.1-0.1,0.1-0.1,0.2c-0.4,1.3-0.8,2.6-1.2,3.9c-0.1,0.3-0.2,0.6-0.3,0.9
	c-0.3,1.1-0.7,2.3-1,3.4c-0.4,1.5-0.8,3-1.2,4.6c-0.2,0.8-0.4,1.7-0.6,2.5c-0.2,1-0.4,2-0.6,3c-0.1,0.4-0.2,0.9-0.3,1.3
	c-0.1,0.4-0.2,0.9-0.3,1.3c0,0,0,0.1,0,0.2c-0.2,0.9-0.3,1.8-0.5,2.7c0,0.1,0,0.2,0,0.3c-0.2,0.9-0.3,1.8-0.4,2.7
	c-0.1,1-0.3,1.9-0.4,2.9c-0.2,1.2-0.3,2.5-0.5,3.7c-0.1,0.9-0.2,1.9-0.3,2.8c-0.2,1.9-0.3,3.8-0.5,5.7c-0.1,1-0.1,1.9-0.2,2.9
	c-0.2,3.9-0.3,7.9-0.3,11.9c0,41.9,12.6,76,37.9,102c1,1,2,2,3,3c3,2.9,6.2,5.7,9.4,8.3c0,0,0,0,0,0c0.7,0.5,1.3,1,1.9,1.5
	c1,0.8,2,1.5,3,2.2c1,0.7,2,1.4,3,2.1c1.8,1.2,3.7,2.4,5.5,3.5c7.5,4.5,15.4,8.2,23.8,11c14.7,5,30.8,7.5,48.4,7.5
	c37.6,0,68.7-11.2,93.3-33.7l0,0c2.3-2.1,4.6-4.3,6.8-6.7c25.6-27,38.4-62.4,38.4-106.4C1513.6,492.2,1501.3,457.7,1476.6,431.5z
	 M1428.1,603.9c-12.8,15.7-30,23.5-51.8,23.5c-21.1,0-38.2-8.1-51.2-24.2c-13-16.1-19.5-38.1-19.5-65.8c0-27.3,6.5-49.3,19.5-65.9
	c13-16.6,30.6-24.9,52.7-24.9c21.5,0,38.4,8.1,50.8,24.2c12.4,16.1,18.6,38.7,18.6,67.8C1447.2,566.4,1440.8,588.2,1428.1,603.9z"/>
<path id="XMLID_31_" class="st0" d="M1447.2,538.5c0,27.9-6.4,49.7-19.1,65.3s-30,23.5-51.8,23.5c-21.1,0-38.2-8.1-51.2-24.2
	c-13-16.1-19.5-38.1-19.5-65.8c0-27.3,6.5-49.3,19.5-65.9c13-16.6,30.6-24.9,52.7-24.9c21.5,0,38.4,8.1,50.8,24.2
	C1441,486.9,1447.2,509.5,1447.2,538.5z"/>
<line id="XMLID_29_" class="st1" x1="319" y1="491" x2="319" y2="491"/>
<line id="XMLID_28_" class="st1" x1="551.8" y1="514.1" x2="544.5" y2="521.3"/>
<line id="XMLID_14_" class="st1" x1="562.3" y1="397" x2="474.8" y2="484.3"/>
<path id="XMLID_13_" class="st0" d="M838,397v164.8c0,43.8-17.3,65.6-52,65.6c-35.4,0-53-22.7-53-68v-57.7L838,397z"/>
<line id="XMLID_9_" class="st1" x1="733" y1="501.8" x2="727.4" y2="507.4"/>
<line id="XMLID_27_" class="st1" x1="900.9" y1="457.9" x2="898.8" y2="460"/>
<line id="XMLID_26_" class="st1" x1="1208.2" y1="503" x2="1200.4" y2="510.7"/>
<line id="XMLID_25_" class="st1" x1="1353.6" y1="763" x2="1337.4" y2="779.1"/>
<line id="XMLID_24_" class="st1" x1="1468.4" y1="648.1" x2="1468.4" y2="648.2"/>
</svg>
